<?xml version="1.0" standalone="no"?><!DOCTYPE svg PUBLIC "-//W3C//DTD SVG 1.1//EN" "http://www.w3.org/Graphics/SVG/1.1/DTD/svg11.dtd"><svg t="1508733533972" class="icon" style="" viewBox="0 0 1024 1024" version="1.1" xmlns="http://www.w3.org/2000/svg" p-id="1007" xmlns:xlink="http://www.w3.org/1999/xlink" width="200" height="200"><defs><style type="text/css"></style></defs><path d="M512 1024C229.2352 1024 0 794.7648 0 512 0 229.2352 229.2352 0 512 0s512 229.2352 512 512C1024 794.7648 794.7648 1024 512 1024zM819.2 358.4 665.6 204.8 384 204.8c-37.7728 0-51.2 17.4464-51.2 51.2 0 7.6288 0 38.4 0 38.4l-76.8 0c-46.4256 0-51.2 24.4736-51.2 64l0 396.8c0 39.5264 4.7744 64 51.2 64l375.4624 0C677.888 819.2 704 769.1264 704 729.6l51.2 0c46.4256 0 64-24.4736 64-64L819.2 358.4zM755.2 704 396.8 704c-23.0272 0-38.4-18.8416-38.4-38.4l0-396.8c0-24.7552 12.8256-38.4 38.4-38.4l243.2 0c-0.3584 44.224 0 89.6 0 89.6 0 39.8848 17.2544 64 64 64 0 0 47.0784 0 89.6 0l0 281.6C793.6 685.1584 778.2272 704 755.2 704zM665.6 486.4 460.8 486.4l0 25.6 204.8 0L665.6 486.4zM665.6 563.2 460.8 563.2l0 25.6 204.8 0L665.6 563.2zM665.6 320l0-76.8 115.2 115.2-76.8 0C680.6272 358.4 665.6 339.9424 665.6 320zM678.4 729.6c0 31.5648-28.1728 64-51.2 64L256 793.6c-23.0272 0-25.6-18.8416-25.6-38.4L230.4 358.4c0-18.2912 2.5728-38.4 25.6-38.4l76.8 0 0 345.6c0 39.5264 17.5744 64 64 64L678.4 729.6z" fill="#781205" p-id="1008"></path></svg>