<?xml version="1.0" standalone="no"?><!DOCTYPE svg PUBLIC "-//W3C//DTD SVG 1.1//EN" "http://www.w3.org/Graphics/SVG/1.1/DTD/svg11.dtd"><svg t="1508900249409" class="icon" style="" viewBox="0 0 1084 1024" version="1.1" xmlns="http://www.w3.org/2000/svg" p-id="1004" xmlns:xlink="http://www.w3.org/1999/xlink" width="211.71875" height="200"><defs><style type="text/css"></style></defs><path d="M704.650062 1023.996838a69.95124 69.95124 0 0 1-51.376617-21.736261c-16.993804-18.574623-70.346445-66.789602-114.214171-66.789602s-97.615572 48.610184-113.423762 65.208783a69.95124 69.95124 0 0 1-50.981413 21.341057 63.627964 63.627964 0 0 1-26.083513-5.137662l-133.974409-74.693697a64.023169 64.023169 0 0 1-21.341056-79.040949 158.081898 158.081898 0 0 0 12.251347-54.143051 141.088094 141.088094 0 0 0-142.273709-139.90248h-5.532866c-22.131466 0-39.520475-19.760237-46.238955-50.586207A686.075439 686.075439 0 0 1 0 513.787511a686.470644 686.470644 0 0 1 11.460938-106.310077C17.389009 375.070645 35.568427 355.705613 58.490302 355.705613h4.742457a141.088094 141.088094 0 0 0 141.088095-140.69289 158.081898 158.081898 0 0 0-12.251347-54.14305 63.627964 63.627964 0 0 1 21.341056-77.064926L355.684272 5.554208A65.208783 65.208783 0 0 1 382.558194 0.021341 71.136854 71.136854 0 0 1 434.725221 20.967193a200.368806 200.368806 0 0 0 111.842943 62.837554A199.578397 199.578397 0 0 0 656.039879 22.152807 71.532059 71.532059 0 0 1 706.626086 0.021341a65.208783 65.208783 0 0 1 26.083513 5.137662L869.450442 83.014338a64.023169 64.023169 0 0 1 21.341056 79.040949 158.081898 158.081898 0 0 0-12.251347 53.747845A141.088094 141.088094 0 0 0 1021.209064 355.705613H1027.53234c22.526671 0 39.520475 19.365033 47.029365 50.191002a686.075439 686.075439 0 0 1 9.880118 107.890896 685.680235 685.680235 0 0 1-11.460937 106.310077c-5.928071 30.82597-24.502694 50.981412-47.029365 50.191003h-4.742457a141.088094 141.088094 0 0 0-141.088094 141.088094 158.081898 158.081898 0 0 0 12.251347 54.14305 63.627964 63.627964 0 0 1-22.921875 75.879311l-137.926457 76.274516a63.627964 63.627964 0 0 1-25.688308 5.137662z m-4.347252-64.813578a8.694504 8.694504 0 0 0 4.347252 0l128.836748-71.136854a218.943429 218.943429 0 0 1-17.389009-79.04095 205.111263 205.111263 0 0 1 194.04553-204.716058 615.728995 615.728995 0 0 0 10.670528-90.501887 616.519404 616.519404 0 0 0-9.880118-93.26832 205.111263 205.111263 0 0 1-194.045531-204.716059 218.943429 218.943429 0 0 1 17.389009-79.040949l-127.255928-71.136854a10.275323 10.275323 0 0 0-4.742457 0 355.684272 355.684272 0 0 1-47.029365 39.520475 195.231145 195.231145 0 0 1-109.866919 39.520474 195.231145 195.231145 0 0 1-110.657329-39.520474 359.241114 359.241114 0 0 1-47.029365-39.520475 9.880119 9.880119 0 0 0-4.742457 0L250.559809 135.971774a218.943429 218.943429 0 0 1 17.389009 79.040949 205.111263 205.111263 0 0 1-194.04553 204.716058A619.285837 619.285837 0 0 0 64.023169 513.787511a618.890632 618.890632 0 0 0 9.880119 93.26832 205.111263 205.111263 0 0 1 194.04553 203.13524 218.15302 218.15302 0 0 1-17.389009 79.040949l124.09429 69.556035a9.484914 9.484914 0 0 0 3.952048 0 358.84591 358.84591 0 0 1 47.424569-41.891703 194.83594 194.83594 0 0 1 112.633353-43.867727 194.440735 194.440735 0 0 1 113.423762 44.658137 363.193162 363.193162 0 0 1 47.819774 42.682112z" fill="#13D30D" p-id="1005"></path><path d="M539.849683 699.533742a187.722254 187.722254 0 1 1 187.722255-187.722255 188.117459 188.117459 0 0 1-187.722255 187.722255z m0-311.816545a124.09429 124.09429 0 1 0 124.094291 124.09429 124.09429 124.09429 0 0 0-124.094291-124.09429z" fill="#13D30D" p-id="1006"></path></svg>