<?xml version="1.0" standalone="no"?><!DOCTYPE svg PUBLIC "-//W3C//DTD SVG 1.1//EN" "http://www.w3.org/Graphics/SVG/1.1/DTD/svg11.dtd"><svg t="1509354485555" class="icon" style="" viewBox="0 0 1024 1024" version="1.1" xmlns="http://www.w3.org/2000/svg" p-id="3063" xmlns:xlink="http://www.w3.org/1999/xlink" width="200" height="200"><defs><style type="text/css"></style></defs><path d="M888.718779 1024h-215.819903l-107.936882-188.943404 107.936882-188.943404h215.819903l107.883021 188.943404-107.883021 188.943404z m-53.968441-270.057648h-107.883021l-53.968441 81.006522 53.968441 80.952662h107.883021l53.968441-80.952662-53.968441-81.006522zM728.59086 521.641069c6.355565 2.531454 12.118662 6.193983 18.312645 8.99474l-82.245319 82.191458A404.063118 404.063118 0 0 0 538.46252 592.467915 403.955397 403.955397 0 0 0 134.507123 996.423312c0 9.102462 0.75405 17.98948 1.346518 26.930359h-107.721439C27.647456 1014.358931 26.785684 1005.525773 26.785684 996.423312c0-215.335157 133.197559-399.269514 321.548496-474.782243C283.97062 467.295603 242.228562 387.043131 242.228562 296.233958a296.233958 296.233958 0 1 1 592.467915 0c0 90.809173-41.742058 171.061645-106.105617 225.407111zM538.46252 107.721439a188.512518 188.512518 0 1 0 0 377.025037 188.512518 188.512518 0 0 0 0-377.025037z" p-id="3064" fill="#1296db"></path></svg>